<?xml version="1.0"?>
<svg xmlns="http://www.w3.org/2000/svg" xmlns:xlink="http://www.w3.org/1999/xlink" xmlns:svgjs="http://svgjs.com/svgjs" version="1.1" width="512" height="512" x="0" y="0" viewBox="0 0 55.752 55.752" style="enable-background:new 0 0 512 512" xml:space="preserve" class=""><g transform="matrix(-1.8369701987210297e-16,-1,1,-1.8369701987210297e-16,-0.0000699758529663086,55.75242936611176)">
<g xmlns="http://www.w3.org/2000/svg">
	<path d="M43.006,23.916c-0.28-0.282-0.59-0.52-0.912-0.727L20.485,1.581c-2.109-2.107-5.527-2.108-7.637,0.001   c-2.109,2.108-2.109,5.527,0,7.637l18.611,18.609L12.754,46.535c-2.11,2.107-2.11,5.527,0,7.637c1.055,1.053,2.436,1.58,3.817,1.58   s2.765-0.527,3.817-1.582l21.706-21.703c0.322-0.207,0.631-0.444,0.912-0.727c1.08-1.08,1.598-2.498,1.574-3.912   C44.605,26.413,44.086,24.993,43.006,23.916z" fill="#ffffff" data-original="#000000" style=""/>
</g>
<g xmlns="http://www.w3.org/2000/svg">
</g>
<g xmlns="http://www.w3.org/2000/svg">
</g>
<g xmlns="http://www.w3.org/2000/svg">
</g>
<g xmlns="http://www.w3.org/2000/svg">
</g>
<g xmlns="http://www.w3.org/2000/svg">
</g>
<g xmlns="http://www.w3.org/2000/svg">
</g>
<g xmlns="http://www.w3.org/2000/svg">
</g>
<g xmlns="http://www.w3.org/2000/svg">
</g>
<g xmlns="http://www.w3.org/2000/svg">
</g>
<g xmlns="http://www.w3.org/2000/svg">
</g>
<g xmlns="http://www.w3.org/2000/svg">
</g>
<g xmlns="http://www.w3.org/2000/svg">
</g>
<g xmlns="http://www.w3.org/2000/svg">
</g>
<g xmlns="http://www.w3.org/2000/svg">
</g>
<g xmlns="http://www.w3.org/2000/svg">
</g>
</g></svg>
